<?xml version="1.0" encoding="utf-8"?>
<!-- Generator: Adobe Illustrator 25.2.1, SVG Export Plug-In . SVG Version: 6.00 Build 0)  -->
<svg version="1.1" id="Layer_1" xmlns="http://www.w3.org/2000/svg" xmlns:xlink="http://www.w3.org/1999/xlink" x="0px" y="0px"
	 viewBox="0 0 324 203" style="enable-background:new 0 0 324 203;" xml:space="preserve">
<style type="text/css">
	.st0{fill:#107C10;}
</style>
<path class="st0" d="M222.06,0.61c-35.43,0-66.58,18.26-84.58,45.88c-8.96-26.67-34.16-45.88-63.85-45.88
	c-37.2,0-67.36,30.16-67.36,67.36c0,2.26,0.04,4.87,0.33,6.69h44.76c-1.02-5.12-0.46-11.01,0.86-15.16
	c3.01-9.4,10.67-15.78,21.07-15.78c9.45,0,17.06,5.49,20.19,13.59c2.56,6.64,1.18,13.49-4.32,21.06
	c-2.3,3.17-88.12,121.28-88.12,121.28h140.12l15.49-21.33c17.61,15.01,40.45,24.08,65.4,24.08c55.72,0,100.89-45.17,100.89-100.89
	S277.78,0.61,222.06,0.61z M79.42,159.47L121.18,102c0.1,21.39,6.86,41.2,18.3,57.47H79.42z M189.11,47.49
	c9.69-5.76,20.19-9.26,32.96-9.26c12.77,0,23.27,3.5,32.96,9.26c0.11,0.06,0.16,0.2,0.1,0.31c-0.05,0.12-0.18,0.14-0.31,0.11
	c-12.25-2.65-30.86,7.93-32.62,8.99c-0.04,0.02-0.08,0.05-0.13,0.05c-0.05,0-0.09-0.03-0.13-0.05c-1.76-1.06-20.37-11.64-32.62-8.99
	c-0.13,0.03-0.25,0.01-0.31-0.11C188.95,47.69,189,47.56,189.11,47.49z M172.07,139.93c-0.11,0.07-0.26,0-0.34-0.1
	c-8.11-10.64-12.94-23.92-12.94-38.33c0-17.56,7.15-33.44,18.7-44.9c0.08-0.08,0.18-0.16,0.28-0.21c1.06-0.55,7.62-2.59,26.91,16.61
	c0.06,0.05,0.11,0.12,0.11,0.21c0,0.07-0.04,0.13-0.09,0.18c-12.73,15.16-37.39,51.3-32.57,66.21
	C172.19,139.72,172.18,139.87,172.07,139.93z M263.71,149.12c-11.13,9.74-25.69,15.64-41.64,15.64c-15.95,0-30.52-5.9-41.64-15.64
	c-9.88-10.05,22.51-45.65,41.43-60.04c0.05-0.04,0.14-0.1,0.21-0.1c0.07,0,0.16,0.06,0.21,0.1
	C241.19,103.47,273.59,139.07,263.71,149.12z M272.39,139.83c-0.08,0.1-0.22,0.17-0.34,0.1c-0.11-0.06-0.12-0.2-0.07-0.33
	c4.82-14.91-19.83-51.06-32.57-66.21c-0.04-0.05-0.09-0.11-0.09-0.18c0-0.09,0.05-0.16,0.11-0.21c19.3-19.2,25.85-17.16,26.91-16.61
	c0.1,0.05,0.2,0.13,0.28,0.21c11.54,11.46,18.7,27.34,18.7,44.9C285.33,115.91,280.51,129.19,272.39,139.83z"/>
</svg>
